<svg data-v-423bf9ae="" xmlns="http://www.w3.org/2000/svg" viewBox="0 0 171.9972759615347 185" class="iconAboveSlogan"><!----><!----><!----><g data-v-423bf9ae="" id="bad428d9-16a2-4788-9161-8fd9397a3cf2" fill="black" transform="matrix(4.1039674680923515,0,0,4.1039674680923515,-2.2571831165533354,91.96032679916351)"><path d="M6.69 11.73L6.69 12.84L6.69 12.84Q6.35 13.12 6.03 13.30L6.03 13.30L6.03 13.30Q5.71 13.48 5.39 13.59L5.39 13.59L5.39 13.59Q5.07 13.69 4.75 13.74L4.75 13.74L4.75 13.74Q4.44 13.78 4.11 13.78L4.11 13.78L4.11 13.78Q3.25 13.78 2.59 13.53L2.59 13.53L2.59 13.53Q1.93 13.28 1.47 12.83L1.47 12.83L1.47 12.83Q1.02 12.38 0.78 11.76L0.78 11.76L0.78 11.76Q0.55 11.14 0.55 10.39L0.55 10.39L0.55 10.39Q0.55 9.47 0.90 8.71L0.90 8.71L0.90 8.71Q1.24 7.95 1.85 7.41L1.85 7.41L1.85 7.41Q2.45 6.86 3.27 6.56L3.27 6.56L3.27 6.56Q4.09 6.26 5.04 6.26L5.04 6.26L5.04 6.26Q5.19 6.26 5.38 6.27L5.38 6.27L5.38 6.27Q5.58 6.28 5.81 6.31L5.81 6.31L5.81 6.31Q6.04 6.34 6.29 6.38L6.29 6.38L6.29 6.38Q6.54 6.43 6.81 6.51L6.81 6.51L6.44 8.19L6.32 8.26L6.32 8.26Q6.21 8.20 6.07 8.13L6.07 8.13L6.07 8.13Q5.93 8.06 5.76 8.00L5.76 8.00L5.76 8.00Q5.58 7.95 5.39 7.91L5.39 7.91L5.39 7.91Q5.20 7.88 5.00 7.88L5.00 7.88L5.00 7.88Q4.63 7.88 4.32 8.02L4.32 8.02L4.32 8.02Q4.02 8.17 3.80 8.44L3.80 8.44L3.80 8.44Q3.59 8.71 3.47 9.10L3.47 9.10L3.47 9.10Q3.35 9.49 3.35 9.97L3.35 9.97L3.35 9.97Q3.35 10.53 3.50 10.91L3.50 10.91L3.50 10.91Q3.65 11.30 3.92 11.55L3.92 11.55L3.92 11.55Q4.18 11.79 4.56 11.90L4.56 11.90L4.56 11.90Q4.94 12.02 5.39 12.02L5.39 12.02L5.39 12.02Q5.54 12.02 5.68 12.00L5.68 12.00L5.68 12.00Q5.82 11.99 5.98 11.96L5.98 11.96L5.98 11.96Q6.13 11.92 6.30 11.87L6.30 11.87L6.30 11.87Q6.47 11.81 6.69 11.73L6.69 11.73ZM12.08 12.61L12.08 12.61L12.08 12.61Q11.86 12.79 11.60 13.00L11.60 13.00L11.60 13.00Q11.33 13.20 11.02 13.37L11.02 13.37L11.02 13.37Q10.71 13.55 10.36 13.67L10.36 13.67L10.36 13.67Q10.01 13.78 9.63 13.78L9.63 13.78L9.63 13.78Q9.13 13.78 8.77 13.58L8.77 13.58L8.77 13.58Q8.41 13.38 8.18 13.07L8.18 13.07L8.18 13.07Q7.96 12.76 7.85 12.40L7.85 12.40L7.85 12.40Q7.75 12.03 7.75 11.70L7.75 11.70L7.75 11.70Q7.75 11.17 7.99 10.73L7.99 10.73L7.99 10.73Q8.24 10.28 8.75 9.96L8.75 9.96L8.75 9.96Q9.26 9.63 10.03 9.45L10.03 9.45L10.03 9.45Q10.79 9.27 11.82 9.27L11.82 9.27L11.97 9.27L11.97 8.91L11.97 8.91Q11.97 8.39 11.65 8.13L11.65 8.13L11.65 8.13Q11.33 7.88 10.78 7.88L10.78 7.88L10.78 7.88Q10.53 7.88 10.25 7.94L10.25 7.94L10.25 7.94Q9.97 8.00 9.69 8.11L9.69 8.11L9.69 8.11Q9.41 8.22 9.14 8.36L9.14 8.36L9.14 8.36Q8.87 8.50 8.62 8.67L8.62 8.67L8.50 8.60L8.05 7.01L8.05 7.01Q8.96 6.62 9.78 6.44L9.78 6.44L9.78 6.44Q10.60 6.26 11.43 6.26L11.43 6.26L11.43 6.26Q12.09 6.26 12.68 6.38L12.68 6.38L12.68 6.38Q13.27 6.50 13.72 6.78L13.72 6.78L13.72 6.78Q14.17 7.05 14.44 7.52L14.44 7.52L14.44 7.52Q14.70 7.98 14.70 8.67L14.70 8.67L14.70 11.36L14.70 11.36Q14.70 11.63 14.81 11.82L14.81 11.82L14.81 11.82Q14.91 12.02 15.20 12.02L15.20 12.02L15.20 12.02Q15.29 12.02 15.36 12.01L15.36 12.01L15.36 12.01Q15.44 12.00 15.54 11.96L15.54 11.96L15.54 13.07L15.54 13.07Q15.05 13.41 14.57 13.60L14.57 13.60L14.57 13.60Q14.08 13.78 13.63 13.78L13.63 13.78L13.63 13.78Q13.10 13.78 12.71 13.50L12.71 13.50L12.71 13.50Q12.32 13.23 12.08 12.61ZM11.97 11.70L11.97 10.12L11.79 10.12L11.79 10.12Q11.34 10.12 11.03 10.19L11.03 10.19L11.03 10.19Q10.72 10.25 10.53 10.38L10.53 10.38L10.53 10.38Q10.34 10.51 10.25 10.70L10.25 10.70L10.25 10.70Q10.17 10.89 10.17 11.14L10.17 11.14L10.17 11.14Q10.17 11.38 10.24 11.55L10.24 11.55L10.24 11.55Q10.31 11.72 10.43 11.82L10.43 11.82L10.43 11.82Q10.55 11.93 10.70 11.97L10.70 11.97L10.70 11.97Q10.86 12.02 11.02 12.02L11.02 12.02L11.02 12.02Q11.24 12.02 11.48 11.94L11.48 11.94L11.48 11.94Q11.73 11.87 11.97 11.70L11.97 11.70ZM16.70 13.64L16.70 6.40L19.04 6.40L19.35 7.56L19.35 7.56Q19.58 7.37 19.87 7.14L19.87 7.14L19.87 7.14Q20.15 6.91 20.48 6.72L20.48 6.72L20.48 6.72Q20.81 6.52 21.18 6.39L21.18 6.39L21.18 6.39Q21.56 6.26 21.98 6.26L21.98 6.26L21.98 6.26Q22.48 6.26 22.90 6.44L22.90 6.44L22.90 6.44Q23.32 6.61 23.63 6.94L23.63 6.94L23.63 6.94Q23.93 7.26 24.09 7.72L24.09 7.72L24.09 7.72Q24.26 8.18 24.26 8.74L24.26 8.74L24.26 13.64L21.53 13.64L21.53 9.15L21.53 9.15Q21.53 8.87 21.45 8.66L21.45 8.66L21.45 8.66Q21.38 8.45 21.24 8.31L21.24 8.31L21.24 8.31Q21.11 8.17 20.94 8.10L20.94 8.10L20.94 8.10Q20.76 8.03 20.57 8.03L20.57 8.03L20.57 8.03Q20.26 8.03 19.98 8.18L19.98 8.18L19.98 8.18Q19.69 8.33 19.43 8.53L19.43 8.53L19.43 13.64L16.70 13.64ZM30.93 11.48L30.93 8.05L30.93 8.05Q30.67 7.94 30.47 7.91L30.47 7.91L30.47 7.91Q30.28 7.88 30.15 7.88L30.15 7.88L30.15 7.88Q29.73 7.88 29.43 8.06L29.43 8.06L29.43 8.06Q29.13 8.25 28.93 8.57L28.93 8.57L28.93 8.57Q28.74 8.88 28.65 9.29L28.65 9.29L28.65 9.29Q28.55 9.69 28.55 10.12L28.55 10.12L28.55 10.12Q28.55 10.56 28.64 10.91L28.64 10.91L28.64 10.91Q28.73 11.27 28.89 11.51L28.89 11.51L28.89 11.51Q29.05 11.76 29.27 11.89L29.27 11.89L29.27 11.89Q29.50 12.02 29.76 12.02L29.76 12.02L29.76 12.02Q30.05 12.02 30.37 11.87L30.37 11.87L30.37 11.87Q30.69 11.73 30.93 11.48L30.93 11.48ZM30.93 6.40L30.93 2.69L33.67 2.69L33.67 13.64L31.30 13.64L31.01 12.56L31.01 12.56Q30.75 12.80 30.48 13.02L30.48 13.02L30.48 13.02Q30.21 13.23 29.91 13.41L29.91 13.41L29.91 13.41Q29.61 13.58 29.28 13.68L29.28 13.68L29.28 13.68Q28.95 13.78 28.57 13.78L28.57 13.78L28.57 13.78Q27.92 13.78 27.40 13.49L27.40 13.49L27.40 13.49Q26.88 13.20 26.51 12.72L26.51 12.72L26.51 12.72Q26.15 12.24 25.96 11.62L25.96 11.62L25.96 11.62Q25.76 11.01 25.76 10.36L25.76 10.36L25.76 10.36Q25.76 9.50 26.08 8.75L26.08 8.75L26.08 8.75Q26.40 8.00 26.95 7.45L26.95 7.45L26.95 7.45Q27.51 6.90 28.25 6.58L28.25 6.58L28.25 6.58Q29.00 6.26 29.85 6.26L29.85 6.26L29.85 6.26Q30.17 6.26 30.47 6.30L30.47 6.30L30.47 6.30Q30.78 6.34 30.93 6.40L30.93 6.40ZM37.06 13.64L34.83 6.40L37.75 6.40L38.64 10.27L38.91 11.73L39.05 11.73L39.30 10.27L40.21 6.40L42.46 6.40L39.12 17.31L36.77 17.31L38.35 13.64L37.06 13.64Z"></path></g><!----><g data-v-423bf9ae="" id="da46c9c9-b79f-4a9d-8ed0-6cc54d2d1130" transform="matrix(1.0323706259275511,0,0,1.0323706259275511,-177.8758692482973,-218.8758692482973)" stroke="none" fill="black"><path d="M256 299.589c-11.643 0-22.589-4.534-30.822-12.767S212.411 267.643 212.411 256s4.534-22.589 12.767-30.822 19.179-12.767 30.822-12.767c11.644 0 22.589 4.534 30.822 12.767 8.232 8.233 12.767 19.179 12.767 30.822 0 11.644-4.534 22.589-12.767 30.822-8.233 8.232-19.178 12.767-30.822 12.767zm0-83.538c-22.028 0-39.949 17.92-39.949 39.949s17.92 39.949 39.949 39.949 39.949-17.921 39.949-39.949-17.92-39.949-39.949-39.949z"></path><path d="M261.618 291.878a36.634 36.634 0 0 1-5.618.431c-20.104 0-36.4-16.296-36.4-36.399 0-20.057 16.22-36.324 36.258-36.398-10.94 6.141-19.037 17.481-19.037 35.479 0 17.702 8.057 31.804 24.797 36.887z"></path><path d="M292.401 255.909a36.26 36.26 0 0 1-9.355 24.362c-.826.056-1.649.087-2.447.087-12.508 0-22.045-7.365-22.045-26.188 0-18.307 9.21-26.026 19.896-26.916 8.494 6.664 13.951 17.021 13.951 28.655z"></path></g><!----><g data-v-423bf9ae="" id="f76aa87d-a192-4e68-b8dc-de3f5d238f5a" fill="black" transform="matrix(0.7617689840606613,0,0,0.7617689840606613,21.5248446163734,201.52779631127132)"><path d="M0.10 3.44C0.10 3.68 0.18 3.70 0.35 3.70L0.76 3.70C0.88 3.70 3.14 7.74 3.54 8.50C3.60 8.60 3.64 8.65 3.64 8.81C3.64 10.50 3.63 12.18 3.50 12.18L2.79 12.18C2.56 12.18 2.52 12.19 2.52 12.39C2.52 12.63 2.53 12.68 2.73 12.68C2.93 12.68 3.74 12.64 4.33 12.64C5.15 12.64 5.68 12.68 6.01 12.68C6.17 12.68 6.20 12.61 6.20 12.40C6.20 12.24 6.17 12.18 6.01 12.18L5.04 12.18C4.94 12.18 4.91 9.72 4.91 8.22C4.91 8.18 4.91 8.15 4.96 8.09C5.50 7.22 7.45 3.70 7.52 3.70L7.99 3.70C8.16 3.70 8.26 3.68 8.26 3.44C8.26 3.22 8.18 3.19 7.99 3.19C7.77 3.19 7.53 3.23 6.93 3.23C6.34 3.23 6.01 3.19 5.84 3.19C5.64 3.19 5.60 3.25 5.60 3.49C5.60 3.68 5.67 3.70 5.89 3.70L6.62 3.70C6.64 3.70 6.65 3.71 6.65 3.74C6.65 4.05 5.08 6.99 4.70 7.71C4.59 7.92 4.59 7.88 4.48 7.67C4.07 6.89 2.79 4.56 2.49 3.85C2.44 3.71 2.42 3.70 2.60 3.70L3.43 3.70C3.65 3.70 3.68 3.68 3.68 3.49C3.68 3.25 3.64 3.19 3.49 3.19C3.25 3.19 2.63 3.23 1.83 3.23C1.02 3.23 0.53 3.19 0.35 3.19C0.17 3.19 0.10 3.21 0.10 3.44ZM15.88 12.39C15.88 12.63 15.90 12.68 16.10 12.68C16.42 12.68 17.39 12.64 17.81 12.64C18.23 12.64 22.74 12.68 23.06 12.68C23.18 12.68 23.34 12.66 23.34 12.49C23.34 12.07 23.38 11.23 23.38 10.53C23.38 10.39 23.23 10.39 23.10 10.39C22.99 10.39 22.86 10.39 22.86 10.51C22.85 11.06 22.85 11.41 22.82 11.76C22.79 12.01 22.79 12.04 22.69 12.04C22.54 12.04 19.91 12.08 18.41 12.08C18.34 12.08 18.30 10.11 18.26 8.26C18.26 8.06 18.30 8.09 18.44 8.09L20.72 8.09C21.42 8.09 21.45 8.20 21.45 8.30L21.45 9.00C21.45 9.14 21.63 9.14 21.74 9.14C21.84 9.14 21.97 9.13 21.97 9.02C21.97 8.83 21.94 8.33 21.94 7.83C21.94 7.32 21.97 6.83 21.97 6.71C21.97 6.59 21.83 6.58 21.73 6.58C21.62 6.58 21.45 6.59 21.45 6.72L21.45 7.45C21.45 7.62 21 7.63 20.72 7.63L18.38 7.63C18.27 7.63 18.26 7.63 18.26 7.45C18.24 6.75 18.23 6.06 18.23 5.46C18.23 5.12 18.23 3.71 18.31 3.71C19.54 3.71 22.05 3.75 22.05 3.81C22.05 3.99 22.01 4.83 22.01 4.89C22.01 5.04 22.08 5.10 22.26 5.10C22.46 5.10 22.53 5.08 22.53 4.94C22.53 3.85 22.58 3.36 22.58 3.09C22.58 2.91 22.50 2.90 22.30 2.90C22.11 2.90 22.11 2.95 22.08 3.11C22.06 3.25 22.13 3.25 21.22 3.25C20.61 3.25 18.47 3.29 17.70 3.29C17.21 3.29 16.27 3.25 16.17 3.25C16.04 3.25 15.99 3.30 15.99 3.49C15.99 3.72 16.06 3.74 16.23 3.74L16.88 3.74C16.94 3.74 17.01 4.79 17.01 5.71C17.01 5.80 17.07 8.27 17.07 9.83L17.07 11.17C17.07 11.84 17.04 12.18 17.01 12.18L16.16 12.18C15.93 12.18 15.88 12.21 15.88 12.39ZM31.56 5.77C31.56 9.07 36.54 8.20 36.54 10.65C36.54 11.59 35.70 12.31 34.72 12.31C33.89 12.31 32.30 11.83 32.27 11.47L32.19 10.15C32.17 9.97 32.10 9.91 31.92 9.91L31.85 9.91C31.64 9.91 31.64 10.00 31.64 10.12C31.64 10.32 31.75 11.66 31.78 12.17C31.79 12.38 33.05 12.85 34.59 12.85C36.16 12.85 37.77 11.87 37.77 10.11C37.77 6.79 32.80 7.87 32.80 5.32C32.80 4.31 33.59 3.56 34.62 3.56C35.64 3.56 36.74 4.58 36.74 4.89C36.74 5.01 36.69 5.73 36.69 5.78C36.69 5.92 36.74 5.99 37.00 5.99C37.24 5.99 37.25 5.94 37.25 5.75C37.25 5.04 37.34 3.68 37.34 3.53C37.34 3.30 37.30 3.29 37.03 3.29C36.81 3.29 36.79 3.32 36.78 3.53C36.78 3.61 36.76 3.78 36.72 3.78C36.67 3.78 36.58 3.74 36.51 3.68C35.71 3.14 35.10 3.08 34.59 3.08C33.07 3.08 31.56 4.17 31.56 5.77ZM45.74 14.55C45.74 14.64 45.81 14.83 45.93 14.83C46.10 14.83 47.54 13.45 47.54 12.25C47.54 11.86 46.76 11.33 46.51 11.33C46.41 11.33 45.79 11.66 45.79 11.93C45.79 12.21 46.72 12.45 46.72 13.08C46.72 13.78 45.74 14.42 45.74 14.55ZM64.96 3.44C64.96 3.68 65.04 3.70 65.21 3.70L65.62 3.70C65.74 3.70 68.00 7.74 68.40 8.50C68.46 8.60 68.50 8.65 68.50 8.81C68.50 10.50 68.49 12.18 68.36 12.18L67.65 12.18C67.42 12.18 67.38 12.19 67.38 12.39C67.38 12.63 67.40 12.68 67.59 12.68C67.79 12.68 68.60 12.64 69.19 12.64C70.01 12.64 70.55 12.68 70.87 12.68C71.04 12.68 71.06 12.61 71.06 12.40C71.06 12.24 71.04 12.18 70.87 12.18L69.90 12.18C69.80 12.18 69.78 9.72 69.78 8.22C69.78 8.18 69.78 8.15 69.82 8.09C70.36 7.22 72.31 3.70 72.38 3.70L72.86 3.70C73.02 3.70 73.12 3.68 73.12 3.44C73.12 3.22 73.04 3.19 72.86 3.19C72.63 3.19 72.39 3.23 71.79 3.23C71.20 3.23 70.87 3.19 70.70 3.19C70.50 3.19 70.46 3.25 70.46 3.49C70.46 3.68 70.53 3.70 70.76 3.70L71.48 3.70C71.50 3.70 71.51 3.71 71.51 3.74C71.51 4.05 69.94 6.99 69.57 7.71C69.45 7.92 69.45 7.88 69.34 7.67C68.94 6.89 67.65 4.56 67.35 3.85C67.30 3.71 67.28 3.70 67.47 3.70L68.29 3.70C68.52 3.70 68.54 3.68 68.54 3.49C68.54 3.25 68.50 3.19 68.35 3.19C68.11 3.19 67.49 3.23 66.70 3.23C65.88 3.23 65.39 3.19 65.21 3.19C65.03 3.19 64.96 3.21 64.96 3.44ZM80.25 8.15C80.25 11.17 82.59 12.80 84.84 12.80C87.63 12.80 89.60 10.89 89.60 8.06C89.60 5.33 87.85 3.11 85.05 3.11C82.45 3.11 80.25 5.10 80.25 8.15ZM81.65 7.77C81.65 5.64 82.94 3.58 84.91 3.58C87.15 3.58 88.23 5.81 88.23 7.94C88.23 10.08 87.12 12.32 84.85 12.32C82.87 12.32 81.65 10.28 81.65 7.77ZM97.71 3.51C97.71 3.75 97.79 3.77 97.96 3.77L98.49 3.77C98.55 3.77 98.55 4.12 98.55 4.55C98.55 5.66 98.53 8.96 98.53 9.42C98.53 11.13 98.78 12.80 101.64 12.80C102.72 12.80 103.88 12.38 104.54 12.00C104.79 11.86 105.08 11.72 105.17 11.72C105.43 11.72 105.70 12.74 106.04 12.74C106.36 12.74 106.37 12.35 106.37 12.25C106.37 11.96 106.43 10.08 106.47 8.16C106.53 6.12 106.51 3.77 106.62 3.77L106.95 3.77C107.17 3.77 107.24 3.75 107.24 3.56C107.24 3.32 107.20 3.26 107.00 3.26C106.86 3.26 106.33 3.30 105.91 3.30C105.49 3.30 104.69 3.26 104.47 3.26C104.29 3.26 104.19 3.28 104.19 3.51C104.19 3.75 104.30 3.77 104.47 3.77L105.17 3.77C105.24 3.77 105.25 4.30 105.25 4.87L105.25 9.14C105.25 11.19 105.25 11.12 104.92 11.34C104.52 11.61 103.71 12.08 102.54 12.08C100.56 12.08 99.76 11.17 99.76 9.41C99.76 8.82 99.83 3.77 99.95 3.77L100.86 3.77C101.08 3.77 101.12 3.75 101.12 3.56C101.12 3.32 101.11 3.26 100.91 3.26C100.59 3.26 99.71 3.30 99.29 3.30C98.87 3.30 98.18 3.26 97.96 3.26C97.78 3.26 97.71 3.28 97.71 3.51ZM125.15 7.91C125.15 11.31 127.51 12.87 130.10 12.87C131.88 12.87 133.66 11.90 133.70 11.59C133.87 10.29 133.92 9.70 133.92 9.66C133.92 9.56 133.88 9.52 133.71 9.51C133.66 9.51 133.60 9.49 133.56 9.49C133.45 9.49 133.39 9.53 133.36 9.70L133.18 11.33C133.17 11.45 132.06 12.24 130.49 12.24C128.37 12.24 126.66 10.29 126.66 7.94C126.66 5.42 128.09 3.54 130.09 3.54C131.94 3.54 133.28 5.01 133.28 5.17C133.28 5.29 133.22 6.40 133.22 6.45C133.22 6.59 133.27 6.64 133.53 6.64C133.73 6.64 133.80 6.62 133.80 6.44C133.80 5.73 133.85 3.92 133.85 3.67C133.85 3.47 133.74 3.44 133.53 3.44C133.31 3.44 133.28 3.50 133.28 3.67L133.28 4.05C133.28 4.16 133.24 4.16 133.11 4.06C132.83 3.86 131.85 3.04 130.19 3.04C127.34 3.04 125.15 4.96 125.15 7.91ZM142.17 12.39C142.17 12.63 142.17 12.68 142.37 12.68C142.53 12.68 142.86 12.64 143.43 12.64C144.05 12.64 144.59 12.68 144.75 12.68C144.91 12.68 144.91 12.61 144.91 12.40C144.91 12.24 144.91 12.18 144.75 12.18L143.67 12.18C143.67 12.18 143.65 12.18 143.65 12.17C143.67 11.87 144.44 9.90 144.79 9.02C144.86 8.83 144.87 8.79 145.08 8.79L147.91 8.79C148.05 8.79 148.05 8.81 148.12 9.03C148.39 9.77 149.10 11.89 149.10 12.17C149.10 12.18 149.09 12.18 149.09 12.18L148.32 12.18C148.09 12.18 148.08 12.19 148.08 12.39C148.08 12.63 148.09 12.68 148.26 12.68C148.58 12.68 149.45 12.64 149.87 12.64C150.29 12.64 150.96 12.68 151.17 12.68C151.31 12.68 151.33 12.61 151.33 12.40C151.33 12.24 151.31 12.18 151.17 12.18L150.68 12.18C150.58 12.18 149.56 9.34 149.00 7.78L147.32 3.07C147.31 3.00 147.24 2.94 147.15 2.94C147.03 2.94 146.93 3.16 146.85 3.35C146.69 3.71 146.45 3.84 146.34 4.13L144.86 7.57C144.68 8.01 142.97 12.18 142.84 12.18L142.42 12.18C142.20 12.18 142.17 12.19 142.17 12.39ZM145.07 8.33C145.07 8.30 145.10 8.23 145.14 8.13L146.51 4.77C146.55 4.66 146.58 4.61 146.61 4.61C146.62 4.61 146.64 4.63 146.68 4.77L147.84 8.18C147.87 8.25 147.88 8.29 147.88 8.32C147.88 8.36 147.85 8.37 147.76 8.37L145.25 8.37C145.07 8.37 145.07 8.34 145.07 8.33ZM159.08 12.39C159.08 12.63 159.10 12.68 159.29 12.68C159.47 12.68 159.85 12.64 160.47 12.64C161.10 12.64 161.66 12.68 161.98 12.68C162.15 12.68 162.15 12.61 162.15 12.40C162.15 12.24 162.15 12.18 161.98 12.18L160.78 12.18C160.73 12.18 160.72 11.54 160.72 10.79C160.72 9.46 160.73 7.48 160.73 5.99C160.73 5.25 160.73 4.84 160.75 4.28C160.75 4.02 160.82 4.14 160.94 4.28L167.83 12.66C167.92 12.75 168 12.89 168.11 12.89C168.22 12.89 168.29 12.77 168.29 12.54C168.29 12.39 168.46 6.65 168.48 4.48C168.48 4.06 168.50 3.70 168.53 3.70L169.16 3.70C169.39 3.70 169.44 3.68 169.44 3.49C169.44 3.25 169.44 3.19 169.25 3.19C169.05 3.19 168.62 3.23 168.06 3.23C167.44 3.23 166.64 3.19 166.54 3.19C166.38 3.19 166.38 3.26 166.38 3.47C166.38 3.64 166.38 3.70 166.54 3.70L167.85 3.70C167.86 3.70 167.86 4.33 167.86 4.44C167.86 5.85 167.89 8.33 167.89 9.70L167.89 10.29C167.89 10.57 167.87 10.65 167.65 10.37L161.97 3.39C161.85 3.25 161.83 3.19 161.66 3.19C161.57 3.19 161.20 3.23 160.89 3.23C160.59 3.23 159.52 3.19 159.32 3.19C159.15 3.19 159.12 3.26 159.12 3.47C159.12 3.64 159.15 3.70 159.32 3.70L160.23 3.70C160.23 4.17 160.19 8.53 160.12 10.79C160.09 11.69 160.10 12.18 159.99 12.18L159.35 12.18C159.12 12.18 159.08 12.19 159.08 12.39Z"></path></g></svg>