<svg data-v-423bf9ae="" xmlns="http://www.w3.org/2000/svg" viewBox="0 0 171.9972759615347 60" class="font"><!----><!----><!----><g data-v-423bf9ae="" id="da976a5c-1d82-45dc-84ff-0d82791fa5ce" fill="white" transform="matrix(4.1039674680923515,0,0,4.1039674680923515,-2.2571831165533354,-11.03967320083649)"><path d="M6.69 11.73L6.69 12.84L6.69 12.84Q6.35 13.12 6.03 13.30L6.03 13.30L6.03 13.30Q5.71 13.48 5.39 13.59L5.39 13.59L5.39 13.59Q5.07 13.69 4.75 13.74L4.75 13.74L4.75 13.74Q4.44 13.78 4.11 13.78L4.11 13.78L4.11 13.78Q3.25 13.78 2.59 13.53L2.59 13.53L2.59 13.53Q1.93 13.28 1.47 12.83L1.47 12.83L1.47 12.83Q1.02 12.38 0.78 11.76L0.78 11.76L0.78 11.76Q0.55 11.14 0.55 10.39L0.55 10.39L0.55 10.39Q0.55 9.47 0.90 8.71L0.90 8.71L0.90 8.71Q1.24 7.95 1.85 7.41L1.85 7.41L1.85 7.41Q2.45 6.86 3.27 6.56L3.27 6.56L3.27 6.56Q4.09 6.26 5.04 6.26L5.04 6.26L5.04 6.26Q5.19 6.26 5.38 6.27L5.38 6.27L5.38 6.27Q5.58 6.28 5.81 6.31L5.81 6.31L5.81 6.31Q6.04 6.34 6.29 6.38L6.29 6.38L6.29 6.38Q6.54 6.43 6.81 6.51L6.81 6.51L6.44 8.19L6.32 8.26L6.32 8.26Q6.21 8.20 6.07 8.13L6.07 8.13L6.07 8.13Q5.93 8.06 5.76 8.00L5.76 8.00L5.76 8.00Q5.58 7.95 5.39 7.91L5.39 7.91L5.39 7.91Q5.20 7.88 5.00 7.88L5.00 7.88L5.00 7.88Q4.63 7.88 4.32 8.02L4.32 8.02L4.32 8.02Q4.02 8.17 3.80 8.44L3.80 8.44L3.80 8.44Q3.59 8.71 3.47 9.10L3.47 9.10L3.47 9.10Q3.35 9.49 3.35 9.97L3.35 9.97L3.35 9.97Q3.35 10.53 3.50 10.91L3.50 10.91L3.50 10.91Q3.65 11.30 3.92 11.55L3.92 11.55L3.92 11.55Q4.18 11.79 4.56 11.90L4.56 11.90L4.56 11.90Q4.94 12.02 5.39 12.02L5.39 12.02L5.39 12.02Q5.54 12.02 5.68 12.00L5.68 12.00L5.68 12.00Q5.82 11.99 5.98 11.96L5.98 11.96L5.98 11.96Q6.13 11.92 6.30 11.87L6.30 11.87L6.30 11.87Q6.47 11.81 6.69 11.73L6.69 11.73ZM12.08 12.61L12.08 12.61L12.08 12.61Q11.86 12.79 11.60 13.00L11.60 13.00L11.60 13.00Q11.33 13.20 11.02 13.37L11.02 13.37L11.02 13.37Q10.71 13.55 10.36 13.67L10.36 13.67L10.36 13.67Q10.01 13.78 9.63 13.78L9.63 13.78L9.63 13.78Q9.13 13.78 8.77 13.58L8.77 13.58L8.77 13.58Q8.41 13.38 8.18 13.07L8.18 13.07L8.18 13.07Q7.96 12.76 7.85 12.40L7.85 12.40L7.85 12.40Q7.75 12.03 7.75 11.70L7.75 11.70L7.75 11.70Q7.75 11.17 7.99 10.73L7.99 10.73L7.99 10.73Q8.24 10.28 8.75 9.96L8.75 9.96L8.75 9.96Q9.26 9.63 10.03 9.45L10.03 9.45L10.03 9.45Q10.79 9.27 11.82 9.27L11.82 9.27L11.97 9.27L11.97 8.91L11.97 8.91Q11.97 8.39 11.65 8.13L11.65 8.13L11.65 8.13Q11.33 7.88 10.78 7.88L10.78 7.88L10.78 7.88Q10.53 7.88 10.25 7.94L10.25 7.94L10.25 7.94Q9.97 8.00 9.69 8.11L9.69 8.11L9.69 8.11Q9.41 8.22 9.14 8.36L9.14 8.36L9.14 8.36Q8.87 8.50 8.62 8.67L8.62 8.67L8.50 8.60L8.05 7.01L8.05 7.01Q8.96 6.62 9.78 6.44L9.78 6.44L9.78 6.44Q10.60 6.26 11.43 6.26L11.43 6.26L11.43 6.26Q12.09 6.26 12.68 6.38L12.68 6.38L12.68 6.38Q13.27 6.50 13.72 6.78L13.72 6.78L13.72 6.78Q14.17 7.05 14.44 7.52L14.44 7.52L14.44 7.52Q14.70 7.98 14.70 8.67L14.70 8.67L14.70 11.36L14.70 11.36Q14.70 11.63 14.81 11.82L14.81 11.82L14.81 11.82Q14.91 12.02 15.20 12.02L15.20 12.02L15.20 12.02Q15.29 12.02 15.36 12.01L15.36 12.01L15.36 12.01Q15.44 12.00 15.54 11.96L15.54 11.96L15.54 13.07L15.54 13.07Q15.05 13.41 14.57 13.60L14.57 13.60L14.57 13.60Q14.08 13.78 13.63 13.78L13.63 13.78L13.63 13.78Q13.10 13.78 12.71 13.50L12.71 13.50L12.71 13.50Q12.32 13.23 12.08 12.61ZM11.97 11.70L11.97 10.12L11.79 10.12L11.79 10.12Q11.34 10.12 11.03 10.19L11.03 10.19L11.03 10.19Q10.72 10.25 10.53 10.38L10.53 10.38L10.53 10.38Q10.34 10.51 10.25 10.70L10.25 10.70L10.25 10.70Q10.17 10.89 10.17 11.14L10.17 11.14L10.17 11.14Q10.17 11.38 10.24 11.55L10.24 11.55L10.24 11.55Q10.31 11.72 10.43 11.82L10.43 11.82L10.43 11.82Q10.55 11.93 10.70 11.97L10.70 11.97L10.70 11.97Q10.86 12.02 11.02 12.02L11.02 12.02L11.02 12.02Q11.24 12.02 11.48 11.94L11.48 11.94L11.48 11.94Q11.73 11.87 11.97 11.70L11.97 11.70ZM16.70 13.64L16.70 6.40L19.04 6.40L19.35 7.56L19.35 7.56Q19.58 7.37 19.87 7.14L19.87 7.14L19.87 7.14Q20.15 6.91 20.48 6.72L20.48 6.72L20.48 6.72Q20.81 6.52 21.18 6.39L21.18 6.39L21.18 6.39Q21.56 6.26 21.98 6.26L21.98 6.26L21.98 6.26Q22.48 6.26 22.90 6.44L22.90 6.44L22.90 6.44Q23.32 6.61 23.63 6.94L23.63 6.94L23.63 6.94Q23.93 7.26 24.09 7.72L24.09 7.72L24.09 7.72Q24.26 8.18 24.26 8.74L24.26 8.74L24.26 13.64L21.53 13.64L21.53 9.15L21.53 9.15Q21.53 8.87 21.45 8.66L21.45 8.66L21.45 8.66Q21.38 8.45 21.24 8.31L21.24 8.31L21.24 8.31Q21.11 8.17 20.94 8.10L20.94 8.10L20.94 8.10Q20.76 8.03 20.57 8.03L20.57 8.03L20.57 8.03Q20.26 8.03 19.98 8.18L19.98 8.18L19.98 8.18Q19.69 8.33 19.43 8.53L19.43 8.53L19.43 13.64L16.70 13.64ZM30.93 11.48L30.93 8.05L30.93 8.05Q30.67 7.94 30.47 7.91L30.47 7.91L30.47 7.91Q30.28 7.88 30.15 7.88L30.15 7.88L30.15 7.88Q29.73 7.88 29.43 8.06L29.43 8.06L29.43 8.06Q29.13 8.25 28.93 8.57L28.93 8.57L28.93 8.57Q28.74 8.88 28.65 9.29L28.65 9.29L28.65 9.29Q28.55 9.69 28.55 10.12L28.55 10.12L28.55 10.12Q28.55 10.56 28.64 10.91L28.64 10.91L28.64 10.91Q28.73 11.27 28.89 11.51L28.89 11.51L28.89 11.51Q29.05 11.76 29.27 11.89L29.27 11.89L29.27 11.89Q29.50 12.02 29.76 12.02L29.76 12.02L29.76 12.02Q30.05 12.02 30.37 11.87L30.37 11.87L30.37 11.87Q30.69 11.73 30.93 11.48L30.93 11.48ZM30.93 6.40L30.93 2.69L33.67 2.69L33.67 13.64L31.30 13.64L31.01 12.56L31.01 12.56Q30.75 12.80 30.48 13.02L30.48 13.02L30.48 13.02Q30.21 13.23 29.91 13.41L29.91 13.41L29.91 13.41Q29.61 13.58 29.28 13.68L29.28 13.68L29.28 13.68Q28.95 13.78 28.57 13.78L28.57 13.78L28.57 13.78Q27.92 13.78 27.40 13.49L27.40 13.49L27.40 13.49Q26.88 13.20 26.51 12.72L26.51 12.72L26.51 12.72Q26.15 12.24 25.96 11.62L25.96 11.62L25.96 11.62Q25.76 11.01 25.76 10.36L25.76 10.36L25.76 10.36Q25.76 9.50 26.08 8.75L26.08 8.75L26.08 8.75Q26.40 8.00 26.95 7.45L26.95 7.45L26.95 7.45Q27.51 6.90 28.25 6.58L28.25 6.58L28.25 6.58Q29.00 6.26 29.85 6.26L29.85 6.26L29.85 6.26Q30.17 6.26 30.47 6.30L30.47 6.30L30.47 6.30Q30.78 6.34 30.93 6.40L30.93 6.40ZM37.06 13.64L34.83 6.40L37.75 6.40L38.64 10.27L38.91 11.73L39.05 11.73L39.30 10.27L40.21 6.40L42.46 6.40L39.12 17.31L36.77 17.31L38.35 13.64L37.06 13.64Z"></path></g><!----><!----></svg>